<?xml version="1.0" encoding="UTF-8"?><svg id="Warstwa_1" xmlns="http://www.w3.org/2000/svg" viewBox="0 0 287.7 64.58"><defs><style>.cls-1{fill:#606060;}.cls-1,.cls-2{stroke-width:0px;}.cls-2{fill:#d6d6d6;}</style></defs><path class="cls-2" d="m14.1,39.5v15.67c0,1.95-1.12,3.07-3.08,3.07h-4.95c-1.95,0-3.07-1.12-3.07-3.07V7.03c0-1.95,1.12-3.07,3.07-3.07h11.02c9.67,0,14.85,3.75,14.85,11.92v11.7c0,8.17-5.17,11.92-14.85,11.92h-3Zm3-8.4c2.48,0,3.75-1.5,3.75-3.52v-11.7c0-2.03-1.27-3.52-3.75-3.52h-3v18.75h3Z"/><path class="cls-2" d="m60.67,35.68l6.82,18.15c.6,1.57.22,4.42-2.85,4.42h-5.17c-1.57,0-2.55-.75-3-2.02l-6.67-18.75h-2.25v17.7c0,1.95-1.12,3.07-3.08,3.07h-4.95c-1.95,0-3.07-1.12-3.07-3.07V7.03c0-1.95,1.12-3.07,3.07-3.07h11.77c9.67,0,14.85,3.75,14.85,11.92v9.67c0,4.95-1.88,8.25-5.47,10.12Zm-9.38-6.6c2.48,0,3.75-1.5,3.75-3.52v-9.67c0-2.03-1.27-3.52-3.75-3.52h-3.75v16.72h3.75Z"/><path class="cls-2" d="m101.85,15.5v31.2c0,8.17-5.17,11.92-14.85,11.92s-14.85-3.75-14.85-11.92V15.5c0-8.17,5.17-11.92,14.85-11.92s14.85,3.75,14.85,11.92Zm-18.6,0v31.2c0,2.02,1.27,3.52,3.75,3.52s3.75-1.5,3.75-3.52V15.5c0-2.02-1.27-3.52-3.75-3.52s-3.75,1.5-3.75,3.52Z"/><path class="cls-1" d="m126.15,12.35v42.82c0,1.95-1.12,3.07-3.08,3.07h-4.95c-1.95,0-3.07-1.12-3.07-3.07V12.35h-7.12c-1.95,0-3.07-1.12-3.07-3.08v-2.25c0-1.95,1.12-3.07,3.07-3.07h25.35c1.95,0,3.07,1.12,3.07,3.07v2.25c0,1.95-1.12,3.08-3.07,3.08h-7.12Z"/><path class="cls-1" d="m161.32,3.95c1.95,0,3.07,1.12,3.07,3.07v2.25c0,1.95-1.12,3.08-3.07,3.08h-10.87v14.55h8.02c1.95,0,3.07,1.12,3.07,3.07v2.25c0,1.95-1.12,3.07-3.07,3.07h-8.02v14.55h10.87c1.95,0,3.07,1.12,3.07,3.07v2.25c0,1.95-1.12,3.07-3.07,3.07h-18.9c-1.95,0-3.07-1.12-3.07-3.07V7.03c0-1.95,1.12-3.07,3.07-3.07h18.9Z"/><path class="cls-1" d="m179.25,55.18c0,1.95-1.12,3.07-3.08,3.07h-4.95c-1.95,0-3.07-1.12-3.07-3.07V7.03c0-1.95,1.12-3.07,3.07-3.07h4.95c1.95,0,3.08,1.12,3.08,3.07v48.15Z"/><path class="cls-1" d="m205.35,7.03c0-1.95,1.12-3.07,3.07-3.07h4.2c1.95,0,3.08,1.12,3.08,3.07v48.15c0,1.95-1.12,3.07-3.08,3.07h-5.02c-1.88,0-2.62-.98-3.08-2.25l-5.62-16.2-3.67-13.05-.75.15,1.12,13.42v14.85c0,1.95-1.12,3.07-3.08,3.07h-4.2c-1.95,0-3.07-1.12-3.07-3.07V7.03c0-1.95,1.12-3.07,3.07-3.07h5.02c1.88,0,2.62.98,3.07,2.25l5.62,16.2,3.67,13.05.75-.15-1.12-13.42V7.03Z"/><path class="cls-2" d="m239.7,15.5c0-2.25-.97-3.98-3.75-3.98s-3.75,1.73-3.75,3.98v6.07c0,1.95-1.12,3.07-3.07,3.07h-4.35c-1.95,0-3.07-1.12-3.07-3.07v-6.07c0-8.17,4.57-11.92,14.25-11.92s14.25,3.75,14.25,11.92v3.37c0,3.75-.38,6.98-3,10.65l-13.57,19.27h13.5c1.95,0,3.07,1.12,3.07,3.08v3.3c0,1.95-1.12,3.07-3.07,3.07h-22.35c-1.95,0-3.07-1.12-3.07-3.07v-4.05c0-1.27.07-1.73.9-2.93l15.45-22.87c1.2-1.72,1.65-3.15,1.65-5.4v-4.42Z"/><path class="cls-2" d="m256.2,7.03c0-1.95,1.12-3.07,3.07-3.07h21.6c1.95,0,3.07,1.12,3.07,3.07v3.3c0,1.95-1.12,3.07-3.07,3.07h-14.92v12.6c3.15-2.25,6.07-3.3,8.92-3.3,5.4,0,9.82,3,9.82,10.05v13.95c0,8.17-4.57,11.92-14.25,11.92s-14.25-3.75-14.25-11.92v-2.33c0-1.95,1.12-3.07,3.07-3.07h4.35c1.95,0,3.07,1.12,3.07,3.07v2.33c0,2.25.98,3.97,3.75,3.97s3.75-1.73,3.75-3.97v-12.07c0-2.25-.97-3.97-3.75-3.97-1.95,0-3.15,1.12-3.68,3.15l-.07.3c-.3,1.27-1.12,2.47-3.07,2.47h-4.35c-1.95,0-3.07-1.12-3.07-3.07V7.03Z"/></svg>