<?xml version="1.0" encoding="UTF-8"?><svg id="Warstwa_1" xmlns="http://www.w3.org/2000/svg" viewBox="0 0 104.91 188.12"><defs><style>.cls-1{fill:#5e5e5e;}.cls-1,.cls-2{stroke-width:0px;}.cls-2{fill:#d6d6d6;}</style></defs><path class="cls-2" d="m14.1,45.9v15.67c0,1.95-1.12,3.07-3.08,3.07h-4.95c-1.95,0-3.07-1.12-3.07-3.07V13.43c0-1.95,1.12-3.07,3.07-3.07h11.02c9.67,0,14.85,3.75,14.85,11.92v11.7c0,8.17-5.17,11.92-14.85,11.92h-3Zm3-8.4c2.48,0,3.75-1.5,3.75-3.52v-11.7c0-2.03-1.27-3.52-3.75-3.52h-3v18.75h3Z"/><path class="cls-2" d="m60.67,42.08l6.82,18.15c.6,1.57.22,4.42-2.85,4.42h-5.17c-1.57,0-2.55-.75-3-2.02l-6.67-18.75h-2.25v17.7c0,1.95-1.12,3.07-3.08,3.07h-4.95c-1.95,0-3.07-1.12-3.07-3.07V13.43c0-1.95,1.12-3.07,3.07-3.07h11.77c9.67,0,14.85,3.75,14.85,11.92v9.67c0,4.95-1.88,8.25-5.47,10.12Zm-9.38-6.6c2.48,0,3.75-1.5,3.75-3.52v-9.67c0-2.03-1.27-3.52-3.75-3.52h-3.75v16.72h3.75Z"/><path class="cls-2" d="m101.85,21.9v31.2c0,8.17-5.17,11.92-14.85,11.92s-14.85-3.75-14.85-11.92v-31.2c0-8.17,5.17-11.92,14.85-11.92s14.85,3.75,14.85,11.92Zm-18.6,0v31.2c0,2.02,1.27,3.52,3.75,3.52s3.75-1.5,3.75-3.52v-31.2c0-2.02-1.27-3.52-3.75-3.52s-3.75,1.5-3.75,3.52Z"/><path class="cls-2" d="m14.05,146.48c0-1.19.68-1.87,1.87-1.87h2.55c1.19,0,1.87.68,1.87,1.87v29.28c0,1.19-.68,1.87-1.87,1.87h-3.06c-1.14,0-1.6-.59-1.87-1.37l-3.42-9.85-2.23-7.94-.46.09.68,8.16v9.03c0,1.19-.68,1.87-1.87,1.87h-2.55c-1.19,0-1.87-.68-1.87-1.87v-29.28c0-1.19.68-1.87,1.87-1.87h3.06c1.14,0,1.6.59,1.87,1.37l3.42,9.85,2.23,7.94.46-.09-.68-8.16v-9.03Z"/><path class="cls-2" d="m42.05,151.63v18.97c0,4.97-3.15,7.25-9.03,7.25s-9.03-2.28-9.03-7.25v-18.97c0-4.97,3.15-7.25,9.03-7.25s9.03,2.28,9.03,7.25Zm-11.77-8.8c-.87.32-1.46.23-1.87-.59l-.41-.91c-.32-.73-.09-1.32.73-1.82l7.43-4.24c.78-.46,1.41-.18,1.82.64l.96,2.1c.41.82.18,1.6-.64,1.87l-8.03,2.96Zm.46,8.8v18.97c0,1.23.78,2.14,2.28,2.14s2.28-.91,2.28-2.14v-18.97c0-1.23-.78-2.14-2.28-2.14s-2.28.91-2.28,2.14Z"/><path class="cls-2" d="m50.36,146.25l1.32,15.78.59,9.9h.46l.36-9.9,1.32-15.78c.09-1.28,1-1.64,1.87-1.64h4.56c.87,0,1.78.36,1.87,1.64l1.32,15.78.36,9.9h.46l.59-9.9,1.32-15.78c.09-1.28,1-1.64,1.87-1.64h2.28c1.37,0,1.96.96,1.82,2.33l-3.24,28.92c-.14,1.32-.87,1.78-1.92,1.78h-5.47c-1.05,0-1.82-.46-1.92-1.78l-1.09-15.64-.32-8.53h-.46l-.32,8.53-1.09,15.64c-.09,1.32-.87,1.78-1.92,1.78h-5.47c-1.05,0-1.78-.46-1.92-1.78l-3.24-28.92c-.14-1.37.46-2.33,1.82-2.33h2.28c.87,0,1.78.36,1.87,1.64Z"/><path class="cls-2" d="m81.83,158.48h.46l5.25-12.82c.27-.68.91-1.05,1.73-1.05h3.1c1.96,0,2.05,1.87,1.73,2.65l-5.88,13.87,5.88,13.86c.32.78.23,2.65-1.73,2.65h-3.1c-.82,0-1.46-.36-1.73-1.05l-5.25-12.82h-.46v11.99c0,1.19-.68,1.87-1.87,1.87h-3.01c-1.19,0-1.87-.68-1.87-1.87v-29.28c0-1.19.68-1.87,1.87-1.87h3.01c1.19,0,1.87.68,1.87,1.87v11.99Z"/><path class="cls-2" d="m103.09,175.76c0,1.19-.68,1.87-1.87,1.87h-3.01c-1.19,0-1.87-.68-1.87-1.87v-29.28c0-1.19.68-1.87,1.87-1.87h3.01c1.19,0,1.87.68,1.87,1.87v29.28Z"/><path class="cls-1" d="m27.98,79.2v56.25c0,2.56-1.48,4.04-4.04,4.04h-6.5c-2.56,0-4.04-1.48-4.04-4.04v-56.25H4.04c-2.56,0-4.04-1.48-4.04-4.04v-2.96c0-2.56,1.48-4.04,4.04-4.04h33.3c2.56,0,4.04,1.48,4.04,4.04v2.96c0,2.56-1.48,4.04-4.04,4.04h-9.36Z"/><path class="cls-1" d="m74.18,68.17c2.56,0,4.04,1.48,4.04,4.04v2.96c0,2.56-1.48,4.04-4.04,4.04h-14.28v19.11h10.54c2.56,0,4.04,1.48,4.04,4.04v2.96c0,2.56-1.48,4.04-4.04,4.04h-10.54v19.11h14.28c2.56,0,4.04,1.48,4.04,4.04v2.96c0,2.56-1.48,4.04-4.04,4.04h-24.82c-2.56,0-4.04-1.48-4.04-4.04v-63.24c0-2.56,1.48-4.04,4.04-4.04h24.82Z"/><path class="cls-1" d="m97.72,135.45c0,2.56-1.48,4.04-4.04,4.04h-6.5c-2.56,0-4.04-1.48-4.04-4.04v-63.24c0-2.56,1.48-4.04,4.04-4.04h6.5c2.56,0,4.04,1.48,4.04,4.04v63.24Z"/></svg>